<?xml version="1.0" encoding="UTF-8"?>
<svg id="Layer_2" data-name="Layer 2" xmlns="http://www.w3.org/2000/svg" viewBox="0 0 105.72 100.98">
  <defs>
    <style>
      .cls-1 {
        fill: none;
        stroke: #2879de;
        stroke-miterlimit: 10;
        stroke-width: 5px;
      }
    </style>
  </defs>
  <g id="Layer_2-2" data-name="Layer 2">
    <g id="logo">
      <path class="cls-1" d="M46.15,91.75c0,3.61-2.93,6.54-6.54,6.54s-6.54-2.93-6.54-6.54,2.93-6.54,6.54-6.54,6.54,2.93,6.54,6.54Zm-1.97-61.48s-.66,1.57,.11,1.18c.42-.21,.73-.44,.94-.71,.41-.51,.5-1.17,.41-2.14-.03-.32-.19-.3-.39-.12-.64,.56-1.61,.59-2.32,.12-1.62-1.06-4.36-2.53-6.97-2.51-2.21,.02-4.31,.86-6.59,2.31-5.6,3.58-5.71,8.93-6.21,14.44-1.12,12.53,25.86,36.61,28.98,36.92l1.28-.02c3.12-.31,30.1-24.39,28.98-36.92-.49-5.51-.61-10.86-6.21-14.44-2.28-1.46-4.38-2.3-6.59-2.31-2.14-.01-4.37,.97-5.99,1.91-1.06,.61-2.3,.6-3.51,.36-.1-.02-.16,.05-.18,.25-.14,1.48,.14,2.23,1.35,2.84,.78,.39,.11-1.18,.11-1.18m-26.97,65.3c-5.66,1.76-11.32-1.9-14.02-4.17C9.46,82.15,2.5,68.32,2.5,52.86,2.5,25.05,25.05,2.5,52.86,2.5s50.36,22.55,50.36,50.36c0,15.3-6.82,29-17.59,38.24,0,0-7.5,7.38-19.98,7.38-8.4,0-12.03-5.72-12.88-8.78-.71-2.59-.23-7.77,0-8.97"/>
    </g>
  </g>
</svg>